<svg height="655.428" width="370" xmlns="http://www.w3.org/2000/svg"><rect style="color:#000;overflow:visible;fill:#ededee;fill-opacity:1;stroke-width:10.5714;stroke-linecap:round;stroke-linejoin:round" width="370" height="655.428" rx="5.286" ry="5.286"/><g color="#000"><path style="isolation:auto;mix-blend-mode:normal;marker:none" d="M79.407 192.606c2.206-2.843 17.249-16.491 20.894-11.023 3.424 5.135-7.814 13.285-11.352 11.516-2.852-1.426 9.035-12.105 11.846-8.061 4.691 6.747-.112 12.31-3.29 11.023-2.83-1.146 10.98-13.729 8.72 2.22m-84.591-20.725c1.602-1.277 3.847-2.565 5.857-3.203 26.762-8.485 7.23 16.135-.45 7.52-2.203-2.47 15.787-9.095 15.112.459-.61 8.614-7.229 8.03-9.097 6.158-.891-.892 7.06-4.858 7.503-2.397.384 2.139-1.998 8.54-2.396 9.601" overflow="visible" fill="none" stroke="#b62b6e" stroke-linecap="round" stroke-linejoin="round" transform="translate(10 17.815) scale(2.46162)"/><path style="isolation:auto;mix-blend-mode:normal;marker:none" d="M99.575 29.456c-16.889-12.046-48.298-17.49-69.1-2.632C30.106 11.402 37.506 6.542 48.08.5c-2.682 4.429-4.71 7.61-4.71 12.915" overflow="visible" fill="#2d2d2d" stroke="#000" stroke-linecap="round" stroke-linejoin="round" transform="translate(10 17.815) scale(2.46162)"/><path style="isolation:auto;mix-blend-mode:normal;marker:none" d="M104.765 16.126c-5.301-5.39-18.198-4.77-26.64-4.77-1.316 0-33.208-1.267-30.364 4.42 2.706 5.412 21.442.008 27.605 3.526 6.076 3.468 15.407 2.98 19.833 7.404 1.088 1.089 3.352 1.19 4.098 2.682.216.432.73-1.145 1.163-1.36 4.584-2.293 4.73-8.502 4.305-11.902z" overflow="visible" fill="#2d2d2d" transform="translate(10 17.815) scale(2.46162)"/><path style="isolation:auto;mix-blend-mode:normal;marker:none" d="M89.868 99.378c2.894-2.754 8.485-3.83 12.669-5.923 22.708-11.354 26.02-23.154 22.868-48.37.824-19.108-1.096-25.766 12.01-36.688-11.691-7.586-28.323 3.4-37.346 8.555M40.84 15.636c14.62-12.702 49.02-12.498 62.858-.967" overflow="visible" fill="#2d2d2d" stroke="#000" stroke-linecap="round" stroke-linejoin="round" transform="translate(10 17.815) scale(2.46162)"/><path style="isolation:auto;mix-blend-mode:normal;marker:none" d="M51.624 93.65c-.004.004-.007.02-.007.052 0 0 .035.017.037.02-.013-.04-.023-.076-.03-.071zm.03.071c.048.15.127.545.127.72 0 1.335-1.185 3.242-2.057 4.114-1.471 1.472-6.593-.55-7.732 1.729-3.08 6.158-6.432 6.531-3.866 14.23.202.605-.472 1.893-.228 2.428-2.304 3.262-2.887 9.918-3.803 13.941 0 6.742 4.8 10.148 9.707 15.055 3.445 3.445 8.637 6.662 11.682 9.707.783.783 9.03-5.934 9.707-6.498 11.173-9.311 14.217-7.588 16.123-24.104.368-3.191.255-5.758-.777-8.087 1.805-3.165 4.51-7.117 6.37-9.598.882-1.176 2.95-8.515 3.372-6.828-1.215-2.34 1.799-4.947.576-6.17-.269-.269-7.376 2.954-10.365 3.701-14.577 3.644-12.304 3.72-24.02-2.139-.555-.277-4.702-2.053-4.816-2.2z" overflow="visible" fill="#2d2d2d" transform="translate(10 17.815) scale(2.46162)"/><path style="isolation:auto;mix-blend-mode:normal;marker:none" d="M39.03 111.388c-.547 7.25-4.606 12.13-4.606 19.743" overflow="visible" fill="none" stroke="#000" stroke-linecap="round" stroke-linejoin="round" transform="translate(10 17.815) scale(2.46162)"/><path style="isolation:auto;mix-blend-mode:normal;marker:none" d="M96.943 91.316c-2.64 2.2-29.449 12.176-33.07 8.556-2.975-2.976-8.88-4.13-12.203-5.962-.164 6.25-4.302 4.454-8.567 5.694-10.528-6.658-19.475-23.588-31.218-23.588-2.19 0-12.942 7.691-11.188 7.897 3.448.404 11.889-3.354 13.162 2.961 1.25 6.203-8.664 18.427-5.923 18.427 3.238 0 8.765-9.109 11.846-7.568 2.016 1.008.064 18.87.517 19.452 1.046 1.345 4.203-7.334 5.406-7.936 5.578-2.789 10.442 4.19 12.143 7.594m59.095-25.527c10.779-14.757 11.194-46.877 2.632-61.86" overflow="visible" fill="#2d2d2d" stroke="#000" stroke-linecap="round" stroke-linejoin="round" transform="translate(10 17.815) scale(2.46162)"/><path style="isolation:auto;mix-blend-mode:normal;marker:none" d="M27.38 46.246c2.885 4.808 5.875 9.898 5.875 15.472.613 6.064-7.031 7.418-8.318 12.565-1.065 4.261 18.643 16.504 22.511 18.439 1.196.597 3.1.777 4.165 1.17 3.358 1.84 9.263 2.993 12.239 5.969 3.62 3.62 30.428-6.355 33.069-8.555 10.779-14.758 11.194-46.878 2.72-61.973-16.803-12.157-48.212-17.602-69.067-2.688-2.243 4.431-6.101 14.755-3.194 19.6z" overflow="visible" fill="#98c807" stroke="#000" stroke-linecap="round" stroke-linejoin="round" transform="translate(10 17.815) scale(2.46162)"/><path style="isolation:auto;mix-blend-mode:normal;marker:none" d="M30.543 26.712c-2.19 4.375-6.048 14.699-3.14 19.545 2.884 4.808 5.874 9.897 5.874 15.472.613 6.063-7.031 7.418-8.318 12.564-1.065 4.262 18.643 16.505 22.511 18.44 1.196.597 3.1.776 4.13 1.163" overflow="visible" fill="none" stroke="#000" stroke-linecap="round" stroke-linejoin="round" transform="translate(10 17.815) scale(2.46162)"/><path style="isolation:auto;mix-blend-mode:normal;marker:none" d="M80.044 180.158c.988-1.462 3.115-2.397 4.828-2.792 1.212-.28 2.17-.698 3.432-.698 1.144 0 2.266-.244 3.373-.465.352-.07 3.844-.126 3.316.93-1.881 3.763-12.429 6.05-14.949 3.025z" overflow="visible" fill="#2d2d2d" transform="translate(10 17.815) scale(2.46162)"/><path style="isolation:auto;mix-blend-mode:normal;marker:none" d="M96.006 176.69c.37 2.363 3.85 4.812.848 5.562-.11.028-.777.328-.814.291-.645-.645-1.415-2.552-1.92-3.257-.576.949-.25 2.75-.988 3.49-3.224 3.223-9.58 3.832-13.67 5.467-.886.355-4.095 2.374-5.118 1.862-.98-.49 1.312-7.883 1.628-8.725m-18.515-30.836c-4.771 9.764.272 18.398 9.214 22.87 2.023 1.01 2.961 6.567 2.961 8.883 0 .764-1.586 2.14-.822 2.14 1.119 0 3.494-2.437 4.935-2.798 7.876-1.969 21.074-.359 25.337-8.884.283-.567-3.643-1.504-3.949-1.81-2.964-2.963-4.348-2.748-5.43-7.074-3.33-13.324 2.05-33.735 7.404-43.105 8.063 1.32 15.303 5.151 15.136 14.642-.498 0 4.713-6.628 4.936-7.074 1.371-2.743 6.087-10.099 6.087-12.833 0-3.73 5.734 7.472 7.132 8.46 2.903-5.871.097-16.662 1.588-19.976 2.446-4.893 7.795 2.53 9.049 3.784 1.79 1.79-.513-5.449-2.303-7.24-17.66-17.66-21.321 1.975-39.321 1.975-3.556 0-9.933-.66-9.543-3.784" overflow="visible" fill="#2d2d2d" stroke="#000" stroke-linecap="round" stroke-linejoin="round" transform="translate(10 17.815) scale(2.46162)"/><path style="isolation:auto;mix-blend-mode:normal;marker:none" d="M35.658 167.573c-5.404-1.35-14.087-2.53-18.138-6.581-.32-.32-1.481-1.588-1.481-1.851 0-.454 4.888.177 5.388.288 2.4.533 14.108 5.802 14.231 8.144z" overflow="visible" fill="#2d2d2d" transform="translate(10 17.815) scale(2.46162)"/><path style="isolation:auto;mix-blend-mode:normal;marker:none" d="M36.186 167.769c-.323 2.29 1.338 5.8 1.338 7.62 0 .95-1.9 0-2.85 0-1.59 0-3.336.174-4.829.174-.267 0 .175-4.928.175-5.468-1.722.234-3.446 1.054-4.944 1.803-.634.317-2.98-.977-3.723-1.163-10.066-2.517-14.809-4.382-17.276-14.251 3.253 1.197 7.166 1.762 10.354 2.56m29.371-17.877c-2.515-2.979-13.229-16.008-16.946-14.15-3.994 1.998-20.176 22.168-18.262 25.995 3.574 7.148 23.22 16.093 31.918 14.643.545-.091 7.203-2.01 5.922-3.29-2.05-2.052-5.264-8.686-5.264-11.517 0-.118-.54-1.81-.494-1.81 4.266 0 10.369 3.374 14.643 4.442" overflow="visible" fill="#2d2d2d" stroke="#000" stroke-linecap="round" stroke-linejoin="round" transform="translate(10 17.815) scale(2.46162)"/><path style="isolation:auto;mix-blend-mode:normal;marker:none" d="M72.96 47.583c-.469 3.854-1.06 10.172-1.06 14.204 0 3.456 4.769 18.701 6.864 17.683 4.106-1.994 9.355-12.73 10.465-15.033 2.137-4.438 9.328-22.178 5.764-25.742-.788-.788-19.554 7.471-22.033 8.888z" overflow="visible" fill="#ededee" transform="translate(10 17.815) scale(2.46162)"/><path style="isolation:auto;mix-blend-mode:normal;marker:none" d="M79.874 69.23c-2.16-1.628-1.843-11.246-.658-13.615.032-.065.88.666.946.7.397.198 1.207-.139 1.521-.453.913-.913 2.223-1.642 3.334-2.531.3-.24.758-1.355.944-1.541.01-.01.359.153.38.197 1.131 2.262-3.605 14.133-5.233 15.762-.436.435-.498 1.572-1.234 1.48z" overflow="visible" fill="#2d2d2d" transform="translate(10 17.815) scale(2.46162)"/><path style="isolation:auto;mix-blend-mode:normal;marker:none" d="M96.505 38.23c-8.837 1.224-16.606 6.474-24.779 9.539-.252-1.08-.024-2.252.116-3.374" overflow="visible" fill="none" stroke="#000" stroke-linecap="round" stroke-linejoin="round" transform="translate(10 17.815) scale(2.46162)"/><path style="isolation:auto;mix-blend-mode:normal;marker:none" d="M37.895 68.955c-.836-4.895-1.078-10.181-1.33-15.368-.164-3.375.93-17.002 2.855-19.124.258-.284 1.984 1.855 2.379 2.214 2.387 2.166 8.714 7.13 8.758 8.542.163 5.253-1.531 11.507-3.835 17.25-1.672 4.17-3.35 8.344-5.975 11.239-1.207 1.33-2.748-4.154-2.852-4.753z" overflow="visible" fill="#ededee" transform="translate(10 17.815) scale(2.46162)"/><path style="isolation:auto;mix-blend-mode:normal;marker:none" d="M37.524 31.657c4.551 5.316 12.057 11.738 16.054 17.333.804-1.635 1.569-3.251 1.977-4.886m19.894 31.469c.605 2.321 2.428 3.047 3.606 4.42.8-1.363 2.187-2.492 3.258-3.257M79.61 44.418c-.469 2.245-.788 3.274-.788 5.692 0 2.048.117 4.125.117 6.151 0 3.03-1.114 9.754.232 12.448 1.286 2.57 4.73-5.812 5.003-6.63 1.404-4.213 4.366-16.842 1.629-20.127" overflow="visible" fill="none" stroke="#000" stroke-linecap="round" stroke-linejoin="round" transform="translate(10 17.815) scale(2.46162)"/><path style="isolation:auto;mix-blend-mode:normal;marker:none" d="M78.928 53.764c.296.646.711 2.371 1.398 2.715.818.409 6.076-4.642 6.416-6.005" overflow="visible" fill="none" stroke="#000" stroke-linecap="round" stroke-linejoin="round" transform="translate(10 17.815) scale(2.46162)"/><path style="isolation:auto;mix-blend-mode:normal;marker:none" d="M47.296 46.315c-.373.864-1.458 1.678-1.858 2.477-.168.335-2.634 3.269-3.203 2.7-.619-.62-1.522-3.096-1.522-3.973 0-.664-.037-2.085-.688-1.961-.352.067-.637 1.386-.637 1.903 0 5.664-1.55 9.777 1.16 15.199.55 1.098-.052 1.835.99 2.356 1.045.522 2.87-2.447 3.053-2.996 1.03-3.092 3.155-12.226 2.705-15.705z" overflow="visible" fill="#2d2d2d" transform="translate(10 17.815) scale(2.46162)"/><path style="isolation:auto;mix-blend-mode:normal;marker:none" d="M42.61 37.23c-3.08 3.656-5.174 19.314-2.95 23.76.348.699 1.265 4.031 2.056 4.031 4.17 0 5.832-18.807 6.281-22.403" overflow="visible" fill="none" stroke="#000" stroke-linecap="round" stroke-linejoin="round" transform="translate(10 17.815) scale(2.46162)"/><path style="isolation:auto;mix-blend-mode:normal;marker:none" d="M40.183 44.098c.747 1.772.666 5.85 1.974 7.157 1.15 1.15 5.171-4.906 5.43-5.594m-9.683 23.447c1.196 5.946 2.735 7.034 5.465 1.08" overflow="visible" fill="none" stroke="#000" stroke-linecap="round" stroke-linejoin="round" transform="translate(10 17.815) scale(2.46162)"/><path style="isolation:auto;mix-blend-mode:normal;marker:none" d="M58.198 74.946c-2.293-5.58-5.145 1.443-6.499 2.797-1.28 1.28-2.662-1.75-2.714-1.645-.281.561-.104 2.837.164 3.373 2.121 4.242 7.238-.494 8.802-.494 3.607 0 6.227 2.658 9.79-.905.65-.65.822-3.551.822-2.632 0 .645-2.334 1.615-2.88 1.07-2.69-2.691-3.016-5.288-7.485-1.564z" overflow="visible" fill="#2d2d2d" fill-opacity=".941" stroke="#000" stroke-linecap="round" stroke-linejoin="round" transform="translate(10 17.815) scale(2.46162)"/><path style="isolation:auto;mix-blend-mode:normal;marker:none" d="M64.635 83.029c.517 2.01 1.495 2.808 2.714.37.091-.182.35-.581.35-.782 0-.12.434-.8.35-.884-.208-.208-3.122 1.086-3.414 1.296z" overflow="visible" fill="#ededee" transform="translate(10 17.815) scale(2.46162)"/><path style="isolation:auto;mix-blend-mode:normal;marker:none" d="M64.63 83.106c-1.482-.134-3.102.61-4.45.61-.76 0-6.497 1.611-6.719 1.833-.103.103.963.878 1.047 1.047.824 1.647 3.007 3.713 4.421 4.42 1.472.736 8.96-5.607 9.801-7.009.238-.396 1.2-2.057.727-2.53-.861-.862-4.827 6.887-4.827 1.629z" overflow="visible" fill="#b62b6e" transform="translate(10 17.815) scale(2.46162)"/><path style="isolation:auto;mix-blend-mode:normal;marker:none" d="M52.604 85.476c5.638-1.398 12.17-2.096 16.864-4.442 1.527 3.625-9.266 10.914-10.777 10.159-2.276-1.138-4.326-5.057-6.087-5.717zm12.01-2.509c.228 4.02 2.806.717 3.414-.905" overflow="visible" fill="none" stroke="#000" stroke-linecap="round" stroke-linejoin="round" transform="translate(10 17.815) scale(2.46162)"/><path style="isolation:auto;mix-blend-mode:normal;marker:none" d="M69.72 105.001c-4.833-1.297-21.931-2.845-19.294 3.398 3.993 6.774 13.173 1.267 15.591 7.833 1.888 6.635-18.939 8.024-17.004 4.443 1.275-2.358 9.087-3.084 12.668 1.097 5.25 6.133-5.495 9.038-8.467 7.26-1.677-6.489 18.112-1.951 2.672 6.978" overflow="visible" fill="none" stroke="#b62b6e" stroke-width="2.415" stroke-linecap="round" stroke-linejoin="round" transform="translate(10 17.815) scale(2.46162)"/></g><path d="M356.216 537.47h1.858q1.032 0 1.513.477.344.478.344 1.296.069.751.069 1.57v43.125q0 .956-.344 1.501-.206.342-.62.41-.343.068-.893.205h-2.408q-.688-.069-1.032-.478-.344-.546-.413-1.365v-43.057q0-.75-.068-1.57 0-.886.344-1.364.275-.41 1.031-.683.138-.068.276 0 .206 0 .343-.068zm-8.606 29.614q.138.682 0 1.57-.069.818-.413 1.16-.344.272-1.031.41-.62.067-1.445.067h-1.651q-.826-.068-1.445-.068h-17.61q-.55 0-1.1.068-.551 0-.895.205-.275.136-.55.546-.138.204-.275.614-.138.34 0 .682.068.341.068.614 0 .273.07.546.137.546.274 1.16.138.546.413 1.092 1.582 3.685 5.228 5.254.413.205.894.341l.963.273q.207.068.688.068.963.273 2.546.273 1.582 0 2.545-.273.963-.272 1.72-.545.825-.342 1.513-.82.757-.477 1.307-1.09.55-.683.963-1.434.413-.682.688-1.433.344-.75 1.1-1.092.276-.136.895-.204.62-.069 1.238 0 .62 0 1.17.068.55.068.756.273.688.477.344 1.57-.55 1.842-1.444 3.274-1.376 2.184-3.165 3.617-1.72 1.365-4.402 2.252-.688.273-1.376.341-.688.136-1.445.273-.344.068-.688.068-.275 0-.619.068h-.688q-.344.07-.825.07-.413 0-.688-.07h-.62q-.343-.068-.618-.068-.275 0-.55-.068-.345-.068-.757-.137-.413 0-.757-.068-.62-.136-1.238-.34-.62-.137-1.17-.342-.275-.137-.481-.137-.207-.068-.482-.204-1.032-.478-2.201-1.16-1.995-1.297-3.44-3.14-1.375-1.91-2.338-4.23-.344-.75-.55-1.57-.138-.818-.413-1.637-.07-.273-.07-.478 0-.204-.068-.546-.138-.545-.206-1.16-.07-.614-.207-1.228v-.955q-.069-.273-.137-.75 0-.547.068-.888v-.75q.138-.342.07-.683 0-.41.068-.75.275-1.092.413-2.184.206-1.092.619-2.047.344-.75.619-1.5.344-.82.757-1.57 1.513-2.389 3.44-4.095 1.925-1.774 4.746-2.934.825-.34 1.65-.478.895-.204 1.858-.41.344-.067.62-.067.274-.069.618-.069.138-.068.344 0 .207.07.344-.068 2.89-.068 5.022.614 2.132.614 3.852 1.706.344.137.55.41.207.204.482.34.55.41 1.1.956.62.546 1.033 1.092 1.1 1.433 1.857 2.73.481.75.757 1.637.275.887.619 1.774t.481 1.843q.207.955.482 1.91.069.478.069.956zm-6.673-2.32q.207-.273.344-.683.138-.477 0-.955-.412-1.5-1.169-2.798-.963-1.569-2.133-2.66-1.169-1.093-3.026-1.843-.482-.137-.963-.205-.482-.136-1.032-.273-.55-.136-1.17-.136h-1.17q-.205.136-.48.136-.276-.068-.482 0l-1.1.273q-.482.068-.964.205-1.995.82-3.233 2.047-1.17 1.228-2.133 3.07-.206.342-.412.888-.207.477-.344 1.091-.138.615-.07 1.16.07.546.482.82.55.41 1.858.41 1.376-.07 2.339-.07h10.456q1.032 0 2.476.07 1.445 0 1.926-.547zm-30.275 2.32q.138.682 0 1.57-.069.818-.413 1.16-.344.272-1.032.41-.619.067-1.444.067h-1.651q-.826-.068-1.445-.068h-17.61q-.55 0-1.1.068-.551 0-.895.205-.275.136-.55.546-.138.204-.276.614-.137.34 0 .682.07.341.07.614 0 .273.068.546.138.546.275 1.16.138.546.413 1.092 1.582 3.685 5.228 5.254.413.205.894.341l.963.273q.207.068.688.068.963.273 2.546.273 1.582 0 2.545-.273.963-.272 1.72-.545.825-.342 1.513-.82.757-.477 1.307-1.09.55-.683.963-1.434.413-.682.688-1.433.344-.75 1.1-1.092.276-.136.895-.204.619-.069 1.238 0 .62 0 1.17.068.55.068.756.273.688.477.344 1.57-.55 1.842-1.444 3.274-1.376 2.184-3.165 3.617-1.72 1.365-4.402 2.252-.688.273-1.376.341-.688.136-1.445.273-.344.068-.688.068-.275 0-.619.068h-.688q-.344.07-.825.07-.413 0-.688-.07h-.62q-.343-.068-.618-.068-.275 0-.55-.068-.345-.068-.757-.137-.413 0-.757-.068-.62-.136-1.238-.34-.62-.137-1.17-.342-.275-.137-.481-.137-.207-.068-.482-.204-1.032-.478-2.201-1.16-1.995-1.297-3.44-3.14-1.375-1.91-2.338-4.23-.344-.75-.55-1.57-.138-.818-.414-1.637-.068-.273-.068-.478 0-.204-.07-.546-.137-.545-.206-1.16-.068-.614-.206-1.228v-.955q-.069-.273-.137-.75 0-.547.068-.888v-.75q.138-.342.07-.683 0-.41.068-.75.275-1.092.413-2.184.206-1.092.619-2.047.344-.75.619-1.5.344-.82.757-1.57 1.513-2.389 3.44-4.095 1.925-1.774 4.746-2.934.825-.34 1.65-.478.895-.204 1.858-.41.344-.067.62-.067.274-.069.618-.069.138-.068.344 0 .207.07.344-.068 2.89-.068 5.022.614 2.132.614 3.852 1.706.344.137.55.41.207.204.482.34.55.41 1.1.956.62.546 1.032 1.092 1.101 1.433 1.858 2.73.481.75.757 1.637.275.887.619 1.774t.481 1.843q.207.955.482 1.91.069.478.069.956zm-6.673-2.32q.207-.273.344-.683.138-.477 0-.955-.412-1.5-1.17-2.798-.962-1.569-2.132-2.66-1.169-1.093-3.026-1.843-.482-.137-.963-.205-.482-.136-1.032-.273-.55-.136-1.17-.136h-1.17q-.206.136-.48.136-.276-.068-.482 0l-1.1.273q-.482.068-.964.205-1.995.82-3.233 2.047-1.17 1.228-2.133 3.07-.206.342-.412.888-.207.477-.344 1.091-.138.615-.07 1.16.07.546.482.82.55.41 1.858.41 1.376-.07 2.339-.07h10.456q1.032 0 2.476.07 1.445 0 1.926-.547zm-60.442-27.227q.963 0 1.995.07 1.1 0 1.514.545.343.477.343 1.433v11.054q0 .273-.068.546 0 .273.068.546.07.204 0 .477 0 .273.07.478.137.546.137 1.024.069.477.757.477.137-.136.275-.136.206-.069.344-.205.412-.273.756-.546.344-.34.757-.682.757-.546 1.651-.956.963-.477 1.926-.818.55-.137 1.17-.205.619-.137 1.169-.273.275-.137.55-.068.276 0 .62-.069.343-.136 1.1-.136.826 0 1.17.136h.619q.344 0 .688.07.55.135 1.1.203.55.07 1.1.205.345.137.551.205.207 0 .55.136.757.341 1.445.75.688.342 1.376.82.688.614 1.307 1.433.413.614.757 1.228.344.614.688 1.365.206.477.275.955.137.478.275 1.024.138.34.138.682 0 .341.068.75.138.342.07.683 0 .341.137.682v.683q.069.34 0 .75v19.243q.069.75 0 1.501 0 .682-.138 1.297-.137.614-.413.818-.481.41-1.788.41h-1.789q-.825 0-1.238-.546-.344-.478-.344-1.092V563.33q.069-2.114-.413-3.616-.825-2.32-2.751-3.41-.55-.343-1.17-.547-.619-.273-1.376-.41-.275-.068-.825-.068-.275-.068-.688-.137-.344-.068-.688.07-.275.067-.55.067-.275-.068-.62 0-.618.136-1.306.273-.62.068-1.17.341-2.339.955-3.714 2.593-1.376 1.638-2.133 4.162-.138.478-.206 1.024-.07.546-.207 1.092-.069.205-.069.477.07.205 0 .41-.068.341 0 .682.07.341 0 .683v15.012q.07.682 0 1.364 0 .683-.068 1.297-.07.614-.275.887-.276.341-.688.41-.344 0-.826.136h-2.408q-.687-.068-1.031-.478-.344-.546-.413-1.296v-43.126q0-.75-.069-1.57 0-.886.344-1.364.275-.478 1.032-.682.137-.069.275 0 .138 0 .275-.069zM232.25 551.39q.482.342.482 1.024.069.682.069 1.433V585.1q-.138.34-.069.682.069.273-.069.614-.137.682-.206 1.364 0 .751-.207 1.433-.206.751-.412 1.433-.138.683-.482 1.365-.688 1.774-1.788 3.207-1.032 1.433-2.477 2.39-1.17.817-2.476 1.295-1.307.546-2.82 1.024-.62.136-1.239.136-.62.068-1.238.205h-.413q-.138.068-.275.068-.344.068-.688 0-.275-.068-.62.068-.48.137-1.513.068-.963 0-1.375-.136-.207 0-.413-.068h-.275q-.62-.137-1.238-.205-.62 0-1.17-.136-.55-.137-1.1-.342-.55-.136-1.101-.34-2.202-.888-3.715-1.98-1.445-1.09-2.614-3.07-.138-.137-.206-.34 0-.138-.138-.343-.206-.546-.481-1.57-.207-.954.412-1.432.413-.34 1.1-.34h2.271q.413 0 .757.135.619.205.894.683.275.477.62 1.023l.55.82q.343.477.687.75 1.72 1.296 4.128 1.91.413.137.825.137.482.068.895.204h.412q.482.137 1.17.137t1.238-.137q.206-.068.55-.068.688-.136 1.307-.273.62-.068 1.17-.34 1.995-.82 3.233-2.253 1.307-1.364 2.132-3.343.276-.614.344-1.297.138-.682.344-1.433.138-.34.138-.682 0-.34.069-.683.069-.204.069-.682.137-.546 0-1.16-.07-.34-.07-.614.07-.273-.068-.478-.138-.136-.206-.136l-.207-.205q-.688 0-1.032.41-.275.34-.688.614l-1.1.955q-.55.41-1.238.75-.964.615-2.408 1.024-1.445.341-3.027.478-1.582.136-3.164-.068-1.582-.137-2.89-.546-6.466-2.116-9.08-8.12-.344-.683-.55-1.297-.207-.682-.482-1.433-.137-.34-.137-.614 0-.273-.138-.614-.137-.478-.206-.956 0-.545-.138-1.023-.069-.273-.069-.478.07-.273 0-.546 0-.273-.068-.546v-.545q-.138-.82 0-1.706.068-.41.068-.82v-.75q.07-.34.07-.546 0-.273.068-.614.206-.75.275-1.433.069-.75.344-1.5.275-.82.482-1.57.275-.82.619-1.57.481-1.092 1.1-1.979.62-.955 1.307-1.842.482-.75 1.239-1.228l.275-.273.275-.273.688-.546.825-.546q.895-.546 1.858-.955 1.032-.41 2.201-.75.688-.206 1.376-.274.757-.068 1.513-.205.275-.068.688 0 .482.07.688-.068 2.201-.068 3.921.41 1.789.477 3.164 1.364.482.273.895.615l.825.682q.344.273.62.614.343.273 1.031.273l.207-.205q.137-.136.275-.34.206-.547.206-1.093.069-.546.413-.955.206-.273.825-.41.62-.204 1.307-.204.688 0 1.307.136.688.137.963.341zm-5.159 17.196q.069-.273.069-.682 0-.478-.069-.75v-1.093q-.137-.614-.206-1.16-.069-.614-.207-1.16-.137-.546-.275-1.023-.069-.546-.275-1.024-.757-1.91-1.995-3.412-1.17-1.5-3.027-2.25-.55-.274-1.17-.41-.618-.206-1.306-.342-.55-.137-1.238-.068h-1.239q-.344.068-.687.068-.276 0-.62.068-1.307.341-2.2.683-2.34.955-3.647 2.865-1.307 1.911-2.064 4.436-.137.546-.206 1.092 0 .477-.137 1.023-.138.205-.138.478.069.273 0 .477v3.072q0 .75.138 1.432v.341q.068.205.068.341.138.615.207 1.23.137.613.344 1.16.55 1.773 1.375 3.274.826 1.501 2.202 2.457l.55.41q.275.135.62.272.55.341 1.169.546.619.205 1.375.41.344.068.62.068.344-.069.687.068.207.068.688.068.482 0 .688-.068.207-.068.413 0 .275 0 .55-.068.62-.137 1.17-.273.55-.137 1.1-.342 2.34-1.023 3.715-2.866 1.376-1.842 2.201-4.298.207-.615.276-1.229.137-.682.275-1.296.069-.273.069-.478 0-.273.068-.546.138-.34 0-.682-.068-.41.07-.819zm-46.546-18.356q4.333-.136 6.947 1.16 2.615 1.297 4.197 3.89.412.682.619 1.501.275.75.481 1.57.344 1.296.413 2.797.069 1.501.069 3.07v17.947q0 1.16-.069 2.32 0 1.16-.894 1.501-.344.137-.757.137-.344.068-.757.068-.894 0-1.72-.068-.825 0-1.169-.546-.344-.478-.344-1.228v-18.492q0-1.843-.069-3.617-.068-1.842-.619-3.139-.55-1.365-1.65-2.183-1.101-.887-2.546-1.365-.413-.137-.894-.137-.413-.068-.826-.204-.344-.069-1.1 0-.688 0-.963.068-.276.136-.482.136-.206-.068-.481 0-.895.205-1.72.478-.757.205-1.445.614-.275.137-.481.273-.207.137-.482.273-2.408 1.706-3.508 5.118-.207.546-.275 1.16-.07.546-.207 1.092-.137.34-.069.682.07.273-.068.546v1.433q-.07.205-.07.478.07.272.07.614v16.172q0 .75-.344 1.228-.344.546-1.239.546-.825.068-1.72.068-.55 0-1.031-.068-.482-.068-.826-.34-.55-.343-.55-1.298v-31.798q0-.614.275-.955.207-.41.688-.546.275-.068.757-.137.55-.068 1.1-.068t1.032.068q.55.07.757.205.757.478.688 1.228-.069.683.206 1.57.138.41.55.682.826.068 1.308-.614.55-.682 1.1-1.092.963-.682 1.926-1.228 1.032-.614 2.34-1.024.55-.204 1.169-.273.688-.068 1.307-.204.344-.069.688-.069zm-30.933-6.14q-.55-.41-.619-1.434v-3.275q0-.614.207-1.024.275-.546 1.1-.819.138-.068.276 0 .206 0 .344-.068 1.169 0 2.2.068 1.033.07 1.377.82.206.41.206 1.023v1.16q0 1.228-.069 2.32 0 1.092-.894 1.433-.344.136-.757.136h-2.201q-.688 0-1.17-.34zm5.091 38.69v1.432q.069.683-.275 1.092-.207.41-.62.546-.412.068-.962.205h-1.032q-.894 0-1.582-.069-.62-.136-.963-.682-.276-.41-.276-1.024v-31.593q0-.75.344-1.16.207-.34.55-.41.345-.068.757-.204.138 0 .276.068.206 0 .343-.068.895 0 1.789.068.963 0 1.307.546.344.41.344 1.092v30.16zm-12.656-32.687q1.582 0 1.788.82.207.75.207 2.251v1.296q0 .614-.344 1.024-.413.546-1.17.614-.757 0-1.513.205-.963.204-1.858.41-.825.204-1.582.545-1.995.887-3.233 2.456-1.238 1.502-2.132 3.48-.276.751-.413 1.57-.138.75-.344 1.57-.069.34-.069.682.069.34 0 .682-.206.82-.206 1.91.068 1.024.068 1.98v9.962q0 .82-.068 1.57-.07.75-.07 1.296.07.546-.274.955-.344.478-1.101.546-.688.068-1.513.068h-1.239q-.344-.136-.687-.204-.276-.137-.413-.342-.344-.477-.413-1.16V552.55q.069-.683.413-1.16.206-.273.688-.41.55-.136 1.17-.136.618-.069 1.237 0 .62.068.963.204.55.205.688.82.207.545.207 1.227v1.365q0 .682.275 1.228.069.137.137.205l.207.205q.757 0 1.238-.614.482-.683.826-1.092l.412-.41q.62-.75 1.72-1.569t2.064-1.228q.619-.34 1.307-.478.688-.205 1.444-.41.413-.068.826-.068.413-.068.757-.136zm-23.51 17.47q.07.34.07.886 0 .545-.07.887-.137.34-.068.682.068.273 0 .546 0 .478-.07.75-.137.615-.206 1.23 0 .613-.137 1.227l-.275 1.092q-.138.477-.344 1.023-.826 2.525-2.27 4.572-.413.614-.895 1.228-.481.546-1.032 1.024l-.343.341q-.482.341-.895.683-.412.34-.963.682-.757.546-1.72.955-.894.341-1.857.683-.55.136-1.1.204-.482.07-1.032.205h-.276q-.068.068-.206.068-.62.137-1.857.137-1.17.068-1.858-.069h-.344q-.481-.068-.894-.136-.413 0-.825-.136-1.17-.342-2.202-.615-1.032-.273-1.926-.818-1.1-.615-1.926-1.297-.275-.205-.825-.546-.55-.41-1.032-.068-.275.205-.275.546 0 .341-.138.75-.069.205 0 .478.069.205 0 .478-.138.41-.138.887.07.546.07.955v10.17q0 1.022-.414 1.568-.344.477-1.1.477-.757.07-1.514.07h-1.1q-.482-.138-.826-.274-.275-.137-.481-.478-.344-.478-.344-1.5.069-1.025.069-1.775v-42.58q.068-.887.412-1.433.207-.273.895-.41.756-.204 1.582-.136.825 0 1.513.205.757.137.963.41.275.34.275.818.07.478.276.956.137.204.206.34.137.07.275.206.757.068 1.238-.478.55-.546 1.032-.887 1.789-1.228 4.265-1.91.62-.137 1.238-.206.688-.068 1.376-.204.275-.069.688 0 .413.068.55-.069 2.958-.068 5.229.615 2.27.614 4.058 1.774l.688.546q.344.204.688.477.138.137.206.273.138.07.276.205l.756.75q.413.41.757.82.825 1.16 1.72 2.524.55.887.894 1.98.413 1.091.757 2.183.137.545.206 1.16.138.614.275 1.16v.546q.069.204.069.41.138.34.069.75 0 .41.137.75zm-6.122 1.841q.138-.34.069-.819-.069-.546-.069-.955 0-1.16-.138-2.184-.068-1.023-.412-1.979l-.275-.819q-.07-.477-.276-.887-.756-1.842-2.407-3.548-1.582-1.706-3.027-2.32-.55-.273-1.17-.41-.55-.136-1.169-.34-.62-.137-1.445-.137h-1.513q-.138.136-.55.136-.344-.068-.62 0l-1.238.273q-.55.137-1.1.41-2.202.955-3.646 2.798-1.376 1.774-2.133 4.162-.275.75-.412 1.501-.07.75-.207 1.501-.069.273-.069.546 0 .205-.068.478v.546q-.07.341-.07 1.023 0 .614.07.956v.546q.068.272.068.545t.07.478q.068.205.068.41 0 .204.069.477.137.546.206 1.092l.275 1.092q.757 2.32 2.064 4.094 1.376 1.706 3.577 2.661 1.307.546 2.683.82.275.135.55.135.275-.068.55 0h.55q.482.137.964 0h.55q.757-.136 1.445-.204.688-.068 1.376-.34 2.132-.889 3.44-2.32 1.375-1.503 2.27-3.618.343-.955.48-1.91.207-1.024.482-2.116.07-.34.07-.614 0-.273.068-.614zM60.88 517.688c-7.896.224-16.62.97-24.62 2.424-8.003 1.456-15.205 3.49-20.35 7.205-2.571 1.858-4.734 4.315-5.567 7.475-.833 3.162-.105 6.647 1.76 9.803a4.153 4.12 0 0 0 .309.453c4.742 6.022 10.727 9.153 16.66 10.49 5.933 1.334 11.809 1.074 17.157.88 5.349-.197 10.17-.3 13.852.651 3.617.936 6.19 2.565 8.472 6.764.71 1.696.691 2.887.067 4.378-.64 1.53-2.1 3.345-4.34 5.13-1.518 1.21-3.719 2.306-5.798 3.42-7.62-4.677-16.733-5.954-24.788-5.052-4.812.54-9.262 1.777-12.952 3.605-3.69 1.83-6.832 4.186-8.257 7.884-.58 1.506-.744 3.41-.08 5.09.664 1.683 1.963 2.856 3.238 3.586 2.55 1.46 5.331 1.792 8.559 1.892 6.454.201 14.724-1.08 22.975-3.465 3.637-1.05 7.195-2.393 10.607-3.872 3.848 3.667 4.732 6.4 4.407 8.577-.18 1.206-.833 2.49-1.834 3.771-1.181-.682-2.114-1.77-3.4-2.225-6.142-2.178-13.17-2.232-18.944.04-2.887 1.135-5.584 2.962-7.181 5.857-1.597 2.895-1.681 6.662-.255 10.17a4.153 4.12 0 0 0 2.203 2.238c4.202 1.804 9.02 1.497 14.067.386 4.374-.962 8.72-3.02 12.69-5.464.07.44.437.692.39 1.253-.29 3.453-4.055 10.25-15.794 19.191a4.154 4.12 0 0 0 5.059 6.537c12.59-9.589 18.38-17.51 19.011-25.048.23-2.752-.587-5.223-1.78-7.43 1.96-2.329 3.516-4.937 3.984-8.07.676-4.529-1.536-9.278-5.442-13.748 1.492-.914 3.215-1.662 4.515-2.698 2.958-2.358 5.422-5.072 6.812-8.39 1.389-3.318 1.468-7.289-.115-10.922a4.153 4.12 0 0 0-.134-.28c-3.28-6.198-8.473-9.679-13.866-11.075-5.392-1.395-10.915-1.108-16.257-.913-5.341.196-10.5.33-15.007-.686-4.404-.99-8.183-2.962-11.696-7.29-.894-1.618-1.025-2.61-.833-3.339.204-.776.85-1.759 2.418-2.892 3.137-2.265 9.546-4.417 16.956-5.764 14.819-2.693 33.935-2.693 41.663-1.678a4.155 4.12 0 1 0 1.089-8.17c-4.67-.613-11.734-.904-19.63-.68zm-26.253 62.204c4.428-.495 9.038.061 13.395 1.333-1.084.362-2.065.85-3.164 1.166-7.55 2.182-15.355 3.303-20.402 3.146-1.56-.049-2.048-.288-2.882-.494.657-.74 1.097-1.474 2.882-2.359 2.61-1.293 6.231-2.35 10.17-2.792zM47.33 603.25c1.755-.002 3.453.395 5.106.793-2.46 1.192-4.844 2.598-7.39 3.158-3.078.677-5.135.35-6.886.074.06-.209-.148-.684-.047-.867.365-.66 1.305-1.507 2.963-2.159 1.657-.652 3.906-.998 6.254-1z" style="color:#000;white-space:normal;clip-rule:nonzero;visibility:visible;isolation:auto;mix-blend-mode:normal;color-interpolation:sRGB;color-interpolation-filters:linearRGB;solid-color:#000;solid-opacity:1;fill:#b62b6e;fill-opacity:1;fill-rule:nonzero;stroke:none;stroke-width:1px;stroke-linecap:butt;stroke-linejoin:miter;stroke-miterlimit:4;stroke-dasharray:none;stroke-dashoffset:0;stroke-opacity:1;color-rendering:auto;image-rendering:auto;shape-rendering:auto;text-rendering:auto"/></svg>